<svg viewBox="0 0 200 200" xmlns="http://www.w3.org/2000/svg">
  <defs>
    <radialGradient id="leafGrad" cx="50%" cy="38%" r="65%">
      <stop offset="0%" stop-color="#78d156"/>
      <stop offset="55%" stop-color="#43a040"/>
      <stop offset="100%" stop-color="#1d6527"/>
    </radialGradient>
    <linearGradient id="stemGrad" x1="0" y1="0" x2="0" y2="1">
      <stop offset="0%" stop-color="#4ea540"/>
      <stop offset="100%" stop-color="#2a6e2f"/>
    </linearGradient>
    <g id="leaf">
      <path d="M0,0 C0,0 -40,-35 -40,-60 C-40,-75 -25,-85 -10,-75 C-5,-72 0,-65 0,-60 C0,-65 5,-72 10,-75 C25,-85 40,-75 40,-60 C40,-35 0,0 0,0 Z"
            fill="url(#leafGrad)" stroke="#143f1c" stroke-width="3.5" stroke-linejoin="round"/>
      <path d="M0,0 C0,0 -40,-35 -40,-60 C-40,-75 -25,-85 -10,-75 C-5,-72 0,-65 0,-60 C0,-65 5,-72 10,-75 C25,-85 40,-75 40,-60 C40,-35 0,0 0,0 Z"
            fill="none" stroke="#aae87b" stroke-width="2.4" opacity="0.5"
            transform="translate(0,-14) scale(0.62)"/>
      <circle cx="0" cy="-56" r="8" fill="none" stroke="#c8f29a" stroke-width="2.4" opacity="0.5"/>
    </g>
  </defs>

  <path d="M94,96 C92,118 92,150 96,176 L104,176 C108,150 108,118 106,96 Z"
        fill="url(#stemGrad)" stroke="#143f1c" stroke-width="3" stroke-linejoin="round"/>

  <g transform="translate(100,92) scale(0.95)">
    <use href="#leaf" transform="rotate(0)"/>
    <use href="#leaf" transform="rotate(120)"/>
    <use href="#leaf" transform="rotate(240)"/>
  </g>
</svg>
